<mxfile host="app.diagrams.net" agent="Mozilla/5.0 (Windows NT 10.0; Win64; x64) AppleWebKit/537.36 (KHTML, like Gecko) Chrome/134.0.0.0 Safari/537.36" version="26.1.1">
  <diagram name="Page-1" id="HUgJUxmIHuhw8lg45Epz">
    <mxGraphModel dx="1500" dy="1623" grid="1" gridSize="1" guides="1" tooltips="1" connect="1" arrows="1" fold="1" page="1" pageScale="1" pageWidth="1169" pageHeight="827" math="0" shadow="0">
      <root>
        <mxCell id="0" />
        <mxCell id="1" parent="0" />
        <mxCell id="u_ieO7Wg_MX47zzqjNyd-105" value="&lt;b&gt;MEM&lt;/b&gt;&lt;div&gt;&lt;b&gt;DPSM&lt;/b&gt;&lt;/div&gt;" style="rounded=0;whiteSpace=wrap;html=1;fillColor=#f5f5f5;fontColor=#333333;strokeColor=#000000;sketch=1;curveFitting=1;jiggle=2;strokeWidth=4;" parent="1" vertex="1">
          <mxGeometry x="575" y="-221.08999999999997" width="90" height="161" as="geometry" />
        </mxCell>
        <mxCell id="fypPTlqZ2A_tWLVhOAhW-58" style="edgeStyle=orthogonalEdgeStyle;rounded=0;orthogonalLoop=1;jettySize=auto;html=1;exitX=0;exitY=0.5;exitDx=0;exitDy=0;entryX=0;entryY=0.5;entryDx=0;entryDy=0;fillColor=#dae8fc;strokeColor=#6c8ebf;strokeWidth=3;" parent="1" source="fypPTlqZ2A_tWLVhOAhW-51" target="fypPTlqZ2A_tWLVhOAhW-38" edge="1">
          <mxGeometry relative="1" as="geometry">
            <Array as="points">
              <mxPoint x="717" y="-535" />
              <mxPoint x="717" y="-80" />
            </Array>
          </mxGeometry>
        </mxCell>
        <mxCell id="fypPTlqZ2A_tWLVhOAhW-59" style="edgeStyle=orthogonalEdgeStyle;rounded=0;orthogonalLoop=1;jettySize=auto;html=1;exitX=0;exitY=0.5;exitDx=0;exitDy=0;strokeWidth=3;fillColor=#dae8fc;strokeColor=#6c8ebf;endArrow=none;startFill=1;startArrow=classic;" parent="1" source="fypPTlqZ2A_tWLVhOAhW-51" edge="1">
          <mxGeometry relative="1" as="geometry">
            <mxPoint x="573" y="-537" as="targetPoint" />
            <Array as="points">
              <mxPoint x="660" y="-535" />
              <mxPoint x="573" y="-536" />
            </Array>
          </mxGeometry>
        </mxCell>
        <mxCell id="fypPTlqZ2A_tWLVhOAhW-60" value="&lt;b&gt;EN&lt;/b&gt;" style="edgeLabel;html=1;align=center;verticalAlign=middle;resizable=0;points=[];" parent="fypPTlqZ2A_tWLVhOAhW-59" vertex="1" connectable="0">
          <mxGeometry x="0.2974" relative="1" as="geometry">
            <mxPoint as="offset" />
          </mxGeometry>
        </mxCell>
        <mxCell id="fypPTlqZ2A_tWLVhOAhW-51" value="&lt;b&gt;&lt;font style=&quot;color: rgb(150, 115, 166);&quot;&gt;&lt;font style=&quot;font-size: 16px;&quot;&gt;Finding RPSM&lt;/font&gt;&amp;nbsp; &amp;nbsp; &amp;nbsp; &amp;nbsp; &amp;nbsp; &amp;nbsp;&lt;/font&gt;&lt;/b&gt;&lt;div&gt;&lt;b&gt;&lt;font style=&quot;color: rgb(150, 115, 166);&quot;&gt;&lt;br&gt;&lt;/font&gt;&lt;/b&gt;&lt;/div&gt;&lt;div&gt;&lt;b&gt;&lt;font style=&quot;color: rgb(150, 115, 166);&quot;&gt;&lt;br&gt;&lt;/font&gt;&lt;/b&gt;&lt;/div&gt;&lt;div&gt;&lt;b&gt;&lt;font style=&quot;color: rgb(150, 115, 166);&quot;&gt;&lt;br&gt;&lt;/font&gt;&lt;/b&gt;&lt;/div&gt;&lt;div&gt;&lt;b&gt;&lt;font style=&quot;color: rgb(150, 115, 166);&quot;&gt;&lt;br&gt;&lt;/font&gt;&lt;/b&gt;&lt;/div&gt;&lt;div&gt;&lt;b&gt;&lt;font style=&quot;color: rgb(150, 115, 166);&quot;&gt;&lt;br&gt;&lt;/font&gt;&lt;/b&gt;&lt;/div&gt;&lt;div&gt;&lt;b&gt;&lt;font style=&quot;color: rgb(150, 115, 166);&quot;&gt;&lt;br&gt;&lt;/font&gt;&lt;/b&gt;&lt;/div&gt;&lt;div&gt;&lt;b&gt;&lt;font style=&quot;color: rgb(150, 115, 166);&quot;&gt;&lt;br&gt;&lt;/font&gt;&lt;/b&gt;&lt;/div&gt;&lt;div&gt;&lt;b&gt;&lt;font style=&quot;color: rgb(150, 115, 166);&quot;&gt;&lt;br&gt;&lt;/font&gt;&lt;/b&gt;&lt;/div&gt;&lt;div&gt;&lt;b&gt;&lt;font style=&quot;color: rgb(150, 115, 166);&quot;&gt;&lt;br&gt;&lt;/font&gt;&lt;/b&gt;&lt;/div&gt;&lt;div&gt;&lt;b&gt;&lt;font style=&quot;color: rgb(150, 115, 166);&quot;&gt;&lt;br&gt;&lt;/font&gt;&lt;/b&gt;&lt;/div&gt;&lt;div&gt;&lt;b&gt;&lt;font style=&quot;color: rgb(150, 115, 166);&quot;&gt;&lt;br&gt;&lt;/font&gt;&lt;/b&gt;&lt;/div&gt;&lt;div&gt;&lt;b&gt;&lt;font style=&quot;color: rgb(150, 115, 166);&quot;&gt;&lt;br&gt;&lt;/font&gt;&lt;/b&gt;&lt;/div&gt;&lt;div&gt;&lt;b&gt;&lt;font style=&quot;color: rgb(150, 115, 166);&quot;&gt;&lt;br&gt;&lt;/font&gt;&lt;/b&gt;&lt;/div&gt;&lt;div&gt;&lt;b&gt;&lt;font style=&quot;color: rgb(150, 115, 166);&quot;&gt;&lt;br&gt;&lt;/font&gt;&lt;/b&gt;&lt;/div&gt;&lt;div&gt;&lt;b&gt;&lt;font style=&quot;color: rgb(150, 115, 166);&quot;&gt;&lt;br&gt;&lt;/font&gt;&lt;/b&gt;&lt;/div&gt;&lt;div&gt;&lt;b&gt;&lt;font style=&quot;color: rgb(150, 115, 166);&quot;&gt;&lt;br&gt;&lt;/font&gt;&lt;/b&gt;&lt;/div&gt;&lt;div&gt;&lt;b&gt;&lt;font style=&quot;color: rgb(150, 115, 166);&quot;&gt;&lt;br&gt;&lt;/font&gt;&lt;/b&gt;&lt;/div&gt;&lt;div&gt;&lt;b&gt;&lt;font style=&quot;color: rgb(150, 115, 166);&quot;&gt;&lt;br&gt;&lt;/font&gt;&lt;/b&gt;&lt;/div&gt;&lt;div&gt;&lt;b&gt;&lt;font style=&quot;color: rgb(150, 115, 166);&quot;&gt;&lt;br&gt;&lt;/font&gt;&lt;/b&gt;&lt;/div&gt;&lt;div&gt;&lt;b&gt;&lt;font style=&quot;color: rgb(150, 115, 166);&quot;&gt;&lt;br&gt;&lt;/font&gt;&lt;/b&gt;&lt;/div&gt;&lt;div&gt;&lt;b&gt;&lt;font style=&quot;color: rgb(150, 115, 166);&quot;&gt;&lt;br&gt;&lt;/font&gt;&lt;/b&gt;&lt;/div&gt;&lt;div&gt;&lt;b&gt;&lt;font style=&quot;color: rgb(150, 115, 166);&quot;&gt;&lt;br&gt;&lt;/font&gt;&lt;/b&gt;&lt;/div&gt;&lt;div&gt;&lt;b&gt;&lt;font style=&quot;color: rgb(150, 115, 166);&quot;&gt;&lt;br&gt;&lt;/font&gt;&lt;/b&gt;&lt;/div&gt;&lt;div&gt;&lt;b&gt;&lt;font style=&quot;color: rgb(150, 115, 166);&quot;&gt;&lt;br&gt;&lt;/font&gt;&lt;/b&gt;&lt;/div&gt;&lt;div&gt;&lt;b&gt;&lt;font style=&quot;color: rgb(150, 115, 166);&quot;&gt;&lt;br&gt;&lt;/font&gt;&lt;/b&gt;&lt;/div&gt;&lt;div&gt;&lt;b&gt;&lt;font style=&quot;color: rgb(150, 115, 166);&quot;&gt;&lt;br&gt;&lt;/font&gt;&lt;/b&gt;&lt;/div&gt;&lt;div&gt;&lt;b&gt;&lt;font style=&quot;color: rgb(150, 115, 166);&quot;&gt;&lt;br&gt;&lt;/font&gt;&lt;/b&gt;&lt;/div&gt;&lt;div&gt;&lt;b&gt;&lt;br&gt;&lt;/b&gt;&lt;/div&gt;" style="rounded=1;whiteSpace=wrap;html=1;fillColor=#e1d5e7;strokeColor=#9673a6;dashed=1;dashPattern=12 12;sketch=1;curveFitting=1;jiggle=2;strokeWidth=2;align=right;" parent="1" vertex="1">
          <mxGeometry x="746" y="-755" width="418" height="439" as="geometry" />
        </mxCell>
        <mxCell id="fypPTlqZ2A_tWLVhOAhW-38" value="&lt;b&gt;&lt;font style=&quot;font-size: 16px; color: rgb(150, 115, 166);&quot;&gt;Non-Zero Members&amp;nbsp; &amp;nbsp; &amp;nbsp; &amp;nbsp; &amp;nbsp;&lt;/font&gt;&lt;/b&gt;&lt;div&gt;&lt;b&gt;&lt;font style=&quot;font-size: 16px; color: rgb(150, 115, 166);&quot;&gt;&lt;br&gt;&lt;/font&gt;&lt;/b&gt;&lt;/div&gt;&lt;div&gt;&lt;b&gt;&lt;font style=&quot;font-size: 16px; color: rgb(150, 115, 166);&quot;&gt;&lt;br&gt;&lt;/font&gt;&lt;/b&gt;&lt;/div&gt;&lt;div&gt;&lt;b&gt;&lt;font style=&quot;font-size: 16px; color: rgb(150, 115, 166);&quot;&gt;&lt;br&gt;&lt;/font&gt;&lt;/b&gt;&lt;/div&gt;&lt;div&gt;&lt;b&gt;&lt;font style=&quot;font-size: 16px; color: rgb(150, 115, 166);&quot;&gt;&lt;br&gt;&lt;/font&gt;&lt;/b&gt;&lt;/div&gt;&lt;div&gt;&lt;b&gt;&lt;font style=&quot;font-size: 16px; color: rgb(150, 115, 166);&quot;&gt;&lt;br&gt;&lt;/font&gt;&lt;/b&gt;&lt;/div&gt;&lt;div&gt;&lt;b&gt;&lt;font style=&quot;font-size: 16px; color: rgb(150, 115, 166);&quot;&gt;&lt;br&gt;&lt;/font&gt;&lt;/b&gt;&lt;/div&gt;&lt;div&gt;&lt;b&gt;&lt;font style=&quot;font-size: 16px; color: rgb(150, 115, 166);&quot;&gt;&lt;br&gt;&lt;/font&gt;&lt;/b&gt;&lt;/div&gt;&lt;div&gt;&lt;b&gt;&lt;font style=&quot;font-size: 16px; color: rgb(150, 115, 166);&quot;&gt;&lt;br&gt;&lt;/font&gt;&lt;/b&gt;&lt;/div&gt;&lt;div&gt;&lt;b&gt;&lt;font style=&quot;font-size: 16px; color: rgb(150, 115, 166);&quot;&gt;&lt;br&gt;&lt;/font&gt;&lt;/b&gt;&lt;/div&gt;&lt;div&gt;&lt;b&gt;&lt;font style=&quot;font-size: 16px; color: rgb(150, 115, 166);&quot;&gt;&lt;br&gt;&lt;/font&gt;&lt;/b&gt;&lt;/div&gt;&lt;div&gt;&lt;b&gt;&lt;font style=&quot;font-size: 16px; color: rgb(150, 115, 166);&quot;&gt;&lt;br&gt;&lt;/font&gt;&lt;/b&gt;&lt;/div&gt;&lt;div&gt;&lt;b&gt;&lt;font style=&quot;font-size: 16px; color: rgb(150, 115, 166);&quot;&gt;&lt;br&gt;&lt;/font&gt;&lt;/b&gt;&lt;/div&gt;&lt;div&gt;&lt;b&gt;&lt;font style=&quot;font-size: 16px; color: rgb(150, 115, 166);&quot;&gt;&lt;br&gt;&lt;/font&gt;&lt;/b&gt;&lt;/div&gt;&lt;div&gt;&lt;b&gt;&lt;font style=&quot;font-size: 16px; color: rgb(150, 115, 166);&quot;&gt;&lt;br&gt;&lt;/font&gt;&lt;/b&gt;&lt;/div&gt;&lt;div&gt;&lt;b&gt;&lt;font style=&quot;font-size: 16px; color: rgb(150, 115, 166);&quot;&gt;&lt;br&gt;&lt;/font&gt;&lt;/b&gt;&lt;/div&gt;&lt;div&gt;&lt;b&gt;&lt;font style=&quot;font-size: 16px; color: rgb(150, 115, 166);&quot;&gt;&lt;br&gt;&lt;/font&gt;&lt;/b&gt;&lt;/div&gt;&lt;div&gt;&lt;b&gt;&lt;font style=&quot;font-size: 16px; color: rgb(150, 115, 166);&quot;&gt;&lt;br&gt;&lt;/font&gt;&lt;/b&gt;&lt;/div&gt;&lt;div&gt;&lt;b&gt;&lt;font style=&quot;font-size: 16px; color: rgb(150, 115, 166);&quot;&gt;&lt;br&gt;&lt;/font&gt;&lt;/b&gt;&lt;/div&gt;" style="rounded=1;whiteSpace=wrap;html=1;fillColor=#e1d5e7;strokeColor=#9673a6;dashed=1;dashPattern=12 12;sketch=1;curveFitting=1;jiggle=2;strokeWidth=2;align=right;" parent="1" vertex="1">
          <mxGeometry x="746" y="-270" width="418" height="380" as="geometry" />
        </mxCell>
        <mxCell id="fypPTlqZ2A_tWLVhOAhW-39" value="&lt;font style=&quot;font-size: 16px; color: rgb(150, 115, 166);&quot;&gt;&lt;b&gt;CPSD&amp;nbsp; &amp;nbsp; &amp;nbsp; &amp;nbsp; &amp;nbsp;&lt;/b&gt;&lt;/font&gt;&lt;div&gt;&lt;font style=&quot;font-size: 16px; color: rgb(150, 115, 166);&quot;&gt;&lt;b&gt;&lt;br&gt;&lt;/b&gt;&lt;/font&gt;&lt;/div&gt;&lt;div&gt;&lt;font style=&quot;font-size: 16px; color: rgb(150, 115, 166);&quot;&gt;&lt;b&gt;&lt;br&gt;&lt;/b&gt;&lt;/font&gt;&lt;/div&gt;&lt;div&gt;&lt;font style=&quot;font-size: 16px; color: rgb(150, 115, 166);&quot;&gt;&lt;b&gt;&lt;br&gt;&lt;/b&gt;&lt;/font&gt;&lt;/div&gt;&lt;div&gt;&lt;font style=&quot;font-size: 16px; color: rgb(150, 115, 166);&quot;&gt;&lt;b&gt;&lt;br&gt;&lt;/b&gt;&lt;/font&gt;&lt;/div&gt;&lt;div&gt;&lt;font style=&quot;font-size: 16px; color: rgb(150, 115, 166);&quot;&gt;&lt;b&gt;&lt;br&gt;&lt;/b&gt;&lt;/font&gt;&lt;/div&gt;&lt;div&gt;&lt;font style=&quot;font-size: 16px; color: rgb(150, 115, 166);&quot;&gt;&lt;b&gt;&lt;br&gt;&lt;/b&gt;&lt;/font&gt;&lt;/div&gt;&lt;div&gt;&lt;font style=&quot;font-size: 16px; color: rgb(150, 115, 166);&quot;&gt;&lt;b&gt;&lt;br&gt;&lt;/b&gt;&lt;/font&gt;&lt;/div&gt;&lt;div&gt;&lt;font style=&quot;font-size: 16px; color: rgb(150, 115, 166);&quot;&gt;&lt;b&gt;&lt;br&gt;&lt;/b&gt;&lt;/font&gt;&lt;/div&gt;&lt;div&gt;&lt;font style=&quot;font-size: 16px; color: rgb(150, 115, 166);&quot;&gt;&lt;b&gt;&lt;br&gt;&lt;/b&gt;&lt;/font&gt;&lt;/div&gt;&lt;div&gt;&lt;font style=&quot;font-size: 16px; color: rgb(150, 115, 166);&quot;&gt;&lt;b&gt;&lt;br&gt;&lt;/b&gt;&lt;/font&gt;&lt;/div&gt;&lt;div&gt;&lt;font style=&quot;font-size: 16px; color: rgb(150, 115, 166);&quot;&gt;&lt;b&gt;&lt;br&gt;&lt;/b&gt;&lt;/font&gt;&lt;/div&gt;&lt;div&gt;&lt;font style=&quot;font-size: 16px; color: rgb(150, 115, 166);&quot;&gt;&lt;b&gt;&lt;br&gt;&lt;/b&gt;&lt;/font&gt;&lt;/div&gt;&lt;div&gt;&lt;font style=&quot;font-size: 16px; color: rgb(150, 115, 166);&quot;&gt;&lt;b&gt;&lt;br&gt;&lt;/b&gt;&lt;/font&gt;&lt;/div&gt;&lt;div&gt;&lt;font style=&quot;font-size: 16px; color: rgb(150, 115, 166);&quot;&gt;&lt;b&gt;&lt;br&gt;&lt;/b&gt;&lt;/font&gt;&lt;/div&gt;&lt;div&gt;&lt;font style=&quot;font-size: 16px; color: rgb(150, 115, 166);&quot;&gt;&lt;b&gt;&lt;br&gt;&lt;/b&gt;&lt;/font&gt;&lt;/div&gt;&lt;div&gt;&lt;font style=&quot;font-size: 16px; color: rgb(150, 115, 166);&quot;&gt;&lt;b&gt;&lt;br&gt;&lt;/b&gt;&lt;/font&gt;&lt;/div&gt;&lt;div&gt;&lt;font style=&quot;font-size: 16px; color: rgb(150, 115, 166);&quot;&gt;&lt;b&gt;&lt;br&gt;&lt;/b&gt;&lt;/font&gt;&lt;/div&gt;&lt;div&gt;&lt;font style=&quot;font-size: 16px; color: rgb(150, 115, 166);&quot;&gt;&lt;b&gt;&lt;br&gt;&lt;/b&gt;&lt;/font&gt;&lt;/div&gt;" style="rounded=1;whiteSpace=wrap;html=1;fillColor=#e1d5e7;strokeColor=#9673a6;dashed=1;dashPattern=12 12;sketch=1;curveFitting=1;jiggle=2;strokeWidth=2;align=right;" parent="1" vertex="1">
          <mxGeometry x="1190" y="-267" width="418" height="380" as="geometry" />
        </mxCell>
        <mxCell id="fypPTlqZ2A_tWLVhOAhW-63" style="edgeStyle=orthogonalEdgeStyle;rounded=0;orthogonalLoop=1;jettySize=auto;html=1;exitX=1;exitY=0.25;exitDx=0;exitDy=0;entryX=0.5;entryY=1;entryDx=0;entryDy=0;strokeWidth=3;" parent="1" source="u_ieO7Wg_MX47zzqjNyd-105" target="fypPTlqZ2A_tWLVhOAhW-40" edge="1">
          <mxGeometry relative="1" as="geometry">
            <Array as="points">
              <mxPoint x="726" y="-181" />
              <mxPoint x="726" y="-307" />
              <mxPoint x="841" y="-307" />
            </Array>
          </mxGeometry>
        </mxCell>
        <mxCell id="fypPTlqZ2A_tWLVhOAhW-64" value="&lt;b&gt;DPSM&lt;/b&gt;" style="edgeLabel;html=1;align=center;verticalAlign=middle;resizable=0;points=[];" parent="fypPTlqZ2A_tWLVhOAhW-63" vertex="1" connectable="0">
          <mxGeometry x="0.3558" relative="1" as="geometry">
            <mxPoint as="offset" />
          </mxGeometry>
        </mxCell>
        <mxCell id="fypPTlqZ2A_tWLVhOAhW-65" style="edgeStyle=orthogonalEdgeStyle;rounded=0;orthogonalLoop=1;jettySize=auto;html=1;exitX=0.25;exitY=1;exitDx=0;exitDy=0;fillColor=#d5e8d4;strokeColor=#82b366;strokeWidth=3;endArrow=none;startFill=1;startArrow=classic;" parent="1" source="u_ieO7Wg_MX47zzqjNyd-105" edge="1">
          <mxGeometry relative="1" as="geometry">
            <mxPoint x="597" y="-8" as="targetPoint" />
          </mxGeometry>
        </mxCell>
        <mxCell id="fypPTlqZ2A_tWLVhOAhW-66" value="&lt;b&gt;qrs&lt;/b&gt;" style="edgeLabel;html=1;align=center;verticalAlign=middle;resizable=0;points=[];" parent="fypPTlqZ2A_tWLVhOAhW-65" vertex="1" connectable="0">
          <mxGeometry x="0.1983" y="-1" relative="1" as="geometry">
            <mxPoint as="offset" />
          </mxGeometry>
        </mxCell>
        <mxCell id="fypPTlqZ2A_tWLVhOAhW-67" value="&lt;b&gt;CLR&lt;/b&gt;" style="edgeLabel;html=1;align=center;verticalAlign=middle;resizable=0;points=[];" parent="fypPTlqZ2A_tWLVhOAhW-65" vertex="1" connectable="0">
          <mxGeometry x="-0.2929" y="1" relative="1" as="geometry">
            <mxPoint y="-29" as="offset" />
          </mxGeometry>
        </mxCell>
        <mxCell id="u_ieO7Wg_MX47zzqjNyd-71" value="&lt;b&gt;MEM A&lt;/b&gt;" style="rounded=0;whiteSpace=wrap;html=1;fillColor=#f5f5f5;fontColor=#333333;strokeColor=#000000;sketch=1;curveFitting=1;jiggle=2;strokeWidth=4;" parent="1" vertex="1">
          <mxGeometry x="270.99999999999983" y="-398" width="90" height="161" as="geometry" />
        </mxCell>
        <mxCell id="u_ieO7Wg_MX47zzqjNyd-120" style="edgeStyle=orthogonalEdgeStyle;rounded=0;orthogonalLoop=1;jettySize=auto;html=1;exitX=1;exitY=0.25;exitDx=0;exitDy=0;strokeWidth=3;entryX=0;entryY=0.5;entryDx=0;entryDy=0;" parent="1" source="u_ieO7Wg_MX47zzqjNyd-105" target="fypPTlqZ2A_tWLVhOAhW-7" edge="1">
          <mxGeometry relative="1" as="geometry">
            <mxPoint x="755" y="-130.58999999999992" as="targetPoint" />
            <Array as="points">
              <mxPoint x="755" y="-181.08999999999997" />
            </Array>
          </mxGeometry>
        </mxCell>
        <mxCell id="u_ieO7Wg_MX47zzqjNyd-121" value="&lt;b&gt;RD1&lt;/b&gt;" style="edgeLabel;html=1;align=center;verticalAlign=middle;resizable=0;points=[];" parent="u_ieO7Wg_MX47zzqjNyd-120" vertex="1" connectable="0">
          <mxGeometry x="-0.3091" y="2" relative="1" as="geometry">
            <mxPoint x="-54" y="1" as="offset" />
          </mxGeometry>
        </mxCell>
        <mxCell id="fypPTlqZ2A_tWLVhOAhW-8" value="&lt;b&gt;DPSM&lt;/b&gt;" style="edgeLabel;html=1;align=center;verticalAlign=middle;resizable=0;points=[];" parent="u_ieO7Wg_MX47zzqjNyd-120" vertex="1" connectable="0">
          <mxGeometry x="-0.544" relative="1" as="geometry">
            <mxPoint x="3" y="-1" as="offset" />
          </mxGeometry>
        </mxCell>
        <mxCell id="u_ieO7Wg_MX47zzqjNyd-38" value="&lt;b&gt;MEM B&lt;/b&gt;" style="rounded=0;whiteSpace=wrap;html=1;fillColor=#f5f5f5;fontColor=#333333;strokeColor=#000000;sketch=1;curveFitting=1;jiggle=2;strokeWidth=4;" parent="1" vertex="1">
          <mxGeometry x="268.99" y="-100.58999999999997" width="90" height="161" as="geometry" />
        </mxCell>
        <mxCell id="u_ieO7Wg_MX47zzqjNyd-39" style="edgeStyle=orthogonalEdgeStyle;rounded=0;orthogonalLoop=1;jettySize=auto;html=1;strokeWidth=3;endArrow=none;startFill=1;startArrow=classic;exitX=0.25;exitY=1;exitDx=0;exitDy=0;fillColor=#d5e8d4;strokeColor=#82b366;" parent="1" source="u_ieO7Wg_MX47zzqjNyd-38" edge="1">
          <mxGeometry relative="1" as="geometry">
            <mxPoint x="292" y="106" as="targetPoint" />
            <mxPoint x="293" y="75.90999999999997" as="sourcePoint" />
          </mxGeometry>
        </mxCell>
        <mxCell id="u_ieO7Wg_MX47zzqjNyd-40" value="&lt;b&gt;CLR&lt;/b&gt;" style="edgeLabel;html=1;align=center;verticalAlign=middle;resizable=0;points=[];" parent="u_ieO7Wg_MX47zzqjNyd-39" vertex="1" connectable="0">
          <mxGeometry x="0.5079" y="1" relative="1" as="geometry">
            <mxPoint x="-2" y="-46" as="offset" />
          </mxGeometry>
        </mxCell>
        <mxCell id="fypPTlqZ2A_tWLVhOAhW-3" value="&lt;b&gt;qrs&lt;/b&gt;" style="edgeLabel;html=1;align=center;verticalAlign=middle;resizable=0;points=[];" parent="u_ieO7Wg_MX47zzqjNyd-39" vertex="1" connectable="0">
          <mxGeometry x="0.3755" relative="1" as="geometry">
            <mxPoint x="-1" y="-5" as="offset" />
          </mxGeometry>
        </mxCell>
        <mxCell id="u_ieO7Wg_MX47zzqjNyd-41" style="edgeStyle=orthogonalEdgeStyle;rounded=0;orthogonalLoop=1;jettySize=auto;html=1;exitX=0;exitY=0.5;exitDx=0;exitDy=0;strokeWidth=3;endArrow=none;startFill=1;startArrow=classic;fillColor=#e1d5e7;strokeColor=#9673a6;" parent="1" source="u_ieO7Wg_MX47zzqjNyd-38" edge="1">
          <mxGeometry relative="1" as="geometry">
            <mxPoint x="213.99" y="-60.589999999999975" as="targetPoint" />
            <Array as="points">
              <mxPoint x="215" y="-20.090000000000032" />
              <mxPoint x="215" y="-61.089999999999975" />
            </Array>
          </mxGeometry>
        </mxCell>
        <mxCell id="u_ieO7Wg_MX47zzqjNyd-42" value="&lt;b&gt;A2&lt;/b&gt;" style="edgeLabel;html=1;align=center;verticalAlign=middle;resizable=0;points=[];" parent="u_ieO7Wg_MX47zzqjNyd-41" vertex="1" connectable="0">
          <mxGeometry x="0.283" relative="1" as="geometry">
            <mxPoint x="65" y="7" as="offset" />
          </mxGeometry>
        </mxCell>
        <mxCell id="u_ieO7Wg_MX47zzqjNyd-43" style="edgeStyle=orthogonalEdgeStyle;rounded=0;orthogonalLoop=1;jettySize=auto;html=1;exitX=0.25;exitY=0;exitDx=0;exitDy=0;strokeWidth=3;endArrow=none;startFill=1;startArrow=classic;fillColor=#f8cecc;strokeColor=#b85450;" parent="1" source="u_ieO7Wg_MX47zzqjNyd-38" edge="1">
          <mxGeometry relative="1" as="geometry">
            <mxPoint x="291.3899999999999" y="-155.58999999999997" as="targetPoint" />
          </mxGeometry>
        </mxCell>
        <mxCell id="u_ieO7Wg_MX47zzqjNyd-44" value="&lt;b&gt;CLK&lt;/b&gt;" style="edgeLabel;html=1;align=center;verticalAlign=middle;resizable=0;points=[];" parent="u_ieO7Wg_MX47zzqjNyd-43" vertex="1" connectable="0">
          <mxGeometry x="0.4145" y="1" relative="1" as="geometry">
            <mxPoint y="6" as="offset" />
          </mxGeometry>
        </mxCell>
        <mxCell id="u_ieO7Wg_MX47zzqjNyd-45" style="edgeStyle=orthogonalEdgeStyle;rounded=0;orthogonalLoop=1;jettySize=auto;html=1;exitX=0.75;exitY=0;exitDx=0;exitDy=0;strokeWidth=3;endArrow=none;startFill=1;startArrow=classic;" parent="1" source="u_ieO7Wg_MX47zzqjNyd-38" edge="1">
          <mxGeometry relative="1" as="geometry">
            <mxPoint x="336.65666666666675" y="-148.58999999999997" as="targetPoint" />
          </mxGeometry>
        </mxCell>
        <mxCell id="u_ieO7Wg_MX47zzqjNyd-46" value="&lt;b&gt;WE2&lt;/b&gt;" style="edgeLabel;html=1;align=center;verticalAlign=middle;resizable=0;points=[];" parent="u_ieO7Wg_MX47zzqjNyd-45" vertex="1" connectable="0">
          <mxGeometry x="0.2616" y="1" relative="1" as="geometry">
            <mxPoint y="40" as="offset" />
          </mxGeometry>
        </mxCell>
        <mxCell id="u_ieO7Wg_MX47zzqjNyd-47" value="&lt;b&gt;1&lt;/b&gt;" style="edgeLabel;html=1;align=center;verticalAlign=middle;resizable=0;points=[];" parent="u_ieO7Wg_MX47zzqjNyd-45" vertex="1" connectable="0">
          <mxGeometry x="0.5027" relative="1" as="geometry">
            <mxPoint x="-1" y="-21" as="offset" />
          </mxGeometry>
        </mxCell>
        <mxCell id="u_ieO7Wg_MX47zzqjNyd-48" style="edgeStyle=orthogonalEdgeStyle;rounded=0;orthogonalLoop=1;jettySize=auto;html=1;exitX=1;exitY=0.25;exitDx=0;exitDy=0;strokeWidth=3;entryX=0.25;entryY=1;entryDx=0;entryDy=0;" parent="1" source="u_ieO7Wg_MX47zzqjNyd-38" target="u_ieO7Wg_MX47zzqjNyd-56" edge="1">
          <mxGeometry relative="1" as="geometry">
            <mxPoint x="404.99" y="-60.589999999999975" as="targetPoint" />
            <Array as="points">
              <mxPoint x="410" y="-60" />
              <mxPoint x="410" y="-19" />
            </Array>
          </mxGeometry>
        </mxCell>
        <mxCell id="u_ieO7Wg_MX47zzqjNyd-49" value="&lt;b&gt;RDB&lt;/b&gt;" style="edgeLabel;html=1;align=center;verticalAlign=middle;resizable=0;points=[];" parent="u_ieO7Wg_MX47zzqjNyd-48" vertex="1" connectable="0">
          <mxGeometry x="-0.3262" y="1" relative="1" as="geometry">
            <mxPoint x="-59" y="-1" as="offset" />
          </mxGeometry>
        </mxCell>
        <mxCell id="fypPTlqZ2A_tWLVhOAhW-2" value="&lt;b&gt;EPSM&lt;/b&gt;" style="edgeLabel;html=1;align=center;verticalAlign=middle;resizable=0;points=[];" parent="u_ieO7Wg_MX47zzqjNyd-48" vertex="1" connectable="0">
          <mxGeometry x="-0.6083" relative="1" as="geometry">
            <mxPoint x="-2" as="offset" />
          </mxGeometry>
        </mxCell>
        <mxCell id="u_ieO7Wg_MX47zzqjNyd-50" style="edgeStyle=orthogonalEdgeStyle;rounded=0;orthogonalLoop=1;jettySize=auto;html=1;exitX=0;exitY=0.25;exitDx=0;exitDy=0;strokeWidth=3;endArrow=none;startFill=1;startArrow=classic;entryX=1;entryY=0.5;entryDx=0;entryDy=0;fillColor=#e1d5e7;strokeColor=#9673a6;" parent="1" source="u_ieO7Wg_MX47zzqjNyd-38" target="u_ieO7Wg_MX47zzqjNyd-63" edge="1">
          <mxGeometry relative="1" as="geometry">
            <mxPoint x="149.99" y="-59.589999999999975" as="targetPoint" />
            <Array as="points">
              <mxPoint x="215" y="-60.089999999999975" />
              <mxPoint x="215" y="-20.090000000000032" />
            </Array>
          </mxGeometry>
        </mxCell>
        <mxCell id="u_ieO7Wg_MX47zzqjNyd-51" value="&lt;b&gt;AB&lt;/b&gt;" style="edgeLabel;html=1;align=center;verticalAlign=middle;resizable=0;points=[];" parent="u_ieO7Wg_MX47zzqjNyd-50" vertex="1" connectable="0">
          <mxGeometry x="0.1566" y="-1" relative="1" as="geometry">
            <mxPoint x="66" y="-19" as="offset" />
          </mxGeometry>
        </mxCell>
        <mxCell id="u_ieO7Wg_MX47zzqjNyd-52" style="edgeStyle=orthogonalEdgeStyle;rounded=0;orthogonalLoop=1;jettySize=auto;html=1;exitX=0.75;exitY=1;exitDx=0;exitDy=0;strokeWidth=3;endArrow=none;endFill=1;startArrow=classic;startFill=1;" parent="1" source="u_ieO7Wg_MX47zzqjNyd-56" edge="1">
          <mxGeometry relative="1" as="geometry">
            <mxPoint x="397.99" y="28.549534883720867" as="targetPoint" />
          </mxGeometry>
        </mxCell>
        <mxCell id="u_ieO7Wg_MX47zzqjNyd-53" value="&lt;b&gt;1&lt;/b&gt;" style="edgeLabel;html=1;align=center;verticalAlign=middle;resizable=0;points=[];" parent="u_ieO7Wg_MX47zzqjNyd-52" vertex="1" connectable="0">
          <mxGeometry x="0.507" y="-2" relative="1" as="geometry">
            <mxPoint x="-18" y="1" as="offset" />
          </mxGeometry>
        </mxCell>
        <mxCell id="u_ieO7Wg_MX47zzqjNyd-56" value="&lt;b&gt;ADDER&lt;/b&gt;" style="shape=trapezoid;perimeter=trapezoidPerimeter;whiteSpace=wrap;html=1;fixedSize=1;rotation=90;strokeWidth=2;fillColor=#f5f5f5;fontColor=#333333;strokeColor=#000000;sketch=1;curveFitting=1;jiggle=2;" parent="1" vertex="1">
          <mxGeometry x="414.99" y="-15.590000000000032" width="95" height="40.5" as="geometry" />
        </mxCell>
        <mxCell id="u_ieO7Wg_MX47zzqjNyd-57" style="edgeStyle=orthogonalEdgeStyle;rounded=0;orthogonalLoop=1;jettySize=auto;html=1;exitX=0;exitY=0.5;exitDx=0;exitDy=0;strokeWidth=3;endArrow=none;startFill=1;startArrow=classic;" parent="1" source="u_ieO7Wg_MX47zzqjNyd-62" edge="1">
          <mxGeometry relative="1" as="geometry">
            <mxPoint x="65" y="-96.08999999999997" as="targetPoint" />
            <mxPoint x="115.00000000000068" y="-96.33999999999997" as="sourcePoint" />
            <Array as="points">
              <mxPoint x="65" y="-95.08999999999997" />
              <mxPoint x="65" y="-96.08999999999997" />
            </Array>
          </mxGeometry>
        </mxCell>
        <mxCell id="u_ieO7Wg_MX47zzqjNyd-58" value="&lt;b&gt;vqx&lt;/b&gt;" style="edgeLabel;html=1;align=center;verticalAlign=middle;resizable=0;points=[];" parent="u_ieO7Wg_MX47zzqjNyd-57" vertex="1" connectable="0">
          <mxGeometry x="0.6145" y="-1" relative="1" as="geometry">
            <mxPoint x="-4" y="1" as="offset" />
          </mxGeometry>
        </mxCell>
        <mxCell id="u_ieO7Wg_MX47zzqjNyd-59" style="edgeStyle=orthogonalEdgeStyle;rounded=0;orthogonalLoop=1;jettySize=auto;html=1;exitX=0.5;exitY=0;exitDx=0;exitDy=0;strokeWidth=3;endArrow=none;startFill=1;startArrow=classic;" parent="1" source="u_ieO7Wg_MX47zzqjNyd-62" edge="1">
          <mxGeometry relative="1" as="geometry">
            <mxPoint x="65" y="-134.08999999999997" as="targetPoint" />
            <Array as="points">
              <mxPoint x="145" y="-134.08999999999997" />
              <mxPoint x="65" y="-134.08999999999997" />
            </Array>
          </mxGeometry>
        </mxCell>
        <mxCell id="u_ieO7Wg_MX47zzqjNyd-60" value="&lt;b&gt;L&lt;/b&gt;" style="edgeLabel;html=1;align=center;verticalAlign=middle;resizable=0;points=[];" parent="u_ieO7Wg_MX47zzqjNyd-59" vertex="1" connectable="0">
          <mxGeometry x="0.1868" y="1" relative="1" as="geometry">
            <mxPoint x="-41" y="-1" as="offset" />
          </mxGeometry>
        </mxCell>
        <mxCell id="u_ieO7Wg_MX47zzqjNyd-61" style="edgeStyle=orthogonalEdgeStyle;rounded=0;orthogonalLoop=1;jettySize=auto;html=1;exitX=1;exitY=0.5;exitDx=0;exitDy=0;strokeWidth=3;entryX=0.5;entryY=0;entryDx=0;entryDy=0;" parent="1" source="u_ieO7Wg_MX47zzqjNyd-62" target="u_ieO7Wg_MX47zzqjNyd-63" edge="1">
          <mxGeometry relative="1" as="geometry">
            <Array as="points">
              <mxPoint x="170" y="-95.08999999999997" />
            </Array>
          </mxGeometry>
        </mxCell>
        <mxCell id="u_ieO7Wg_MX47zzqjNyd-62" value="&lt;div&gt;&lt;b style=&quot;background-color: transparent; color: light-dark(rgb(0, 0, 0), rgb(255, 255, 255));&quot;&gt;&lt;font style=&quot;font-size: 25px;&quot;&gt;*&lt;/font&gt;&lt;/b&gt;&lt;/div&gt;" style="ellipse;whiteSpace=wrap;html=1;aspect=fixed;align=center;verticalAlign=top;strokeWidth=2;" parent="1" vertex="1">
          <mxGeometry x="126.99000000000001" y="-112.58999999999997" width="35" height="35" as="geometry" />
        </mxCell>
        <mxCell id="fypPTlqZ2A_tWLVhOAhW-29" style="edgeStyle=orthogonalEdgeStyle;rounded=0;orthogonalLoop=1;jettySize=auto;html=1;exitX=1;exitY=0.5;exitDx=0;exitDy=0;entryX=0;entryY=0.25;entryDx=0;entryDy=0;strokeWidth=3;fillColor=#e1d5e7;strokeColor=#9673a6;" parent="1" source="u_ieO7Wg_MX47zzqjNyd-63" target="u_ieO7Wg_MX47zzqjNyd-105" edge="1">
          <mxGeometry relative="1" as="geometry">
            <Array as="points">
              <mxPoint x="215" y="-20" />
              <mxPoint x="215" y="-171" />
              <mxPoint x="541" y="-171" />
              <mxPoint x="541" y="-181" />
            </Array>
          </mxGeometry>
        </mxCell>
        <mxCell id="fypPTlqZ2A_tWLVhOAhW-30" value="&lt;b&gt;A1&lt;/b&gt;" style="edgeLabel;html=1;align=center;verticalAlign=middle;resizable=0;points=[];" parent="fypPTlqZ2A_tWLVhOAhW-29" vertex="1" connectable="0">
          <mxGeometry x="0.9514" y="1" relative="1" as="geometry">
            <mxPoint x="28" y="1" as="offset" />
          </mxGeometry>
        </mxCell>
        <mxCell id="u_ieO7Wg_MX47zzqjNyd-63" value="&lt;b&gt;+&lt;/b&gt;" style="ellipse;whiteSpace=wrap;html=1;aspect=fixed;strokeWidth=2;" parent="1" vertex="1">
          <mxGeometry x="155" y="-35.09000000000003" width="30" height="30" as="geometry" />
        </mxCell>
        <mxCell id="u_ieO7Wg_MX47zzqjNyd-64" style="edgeStyle=orthogonalEdgeStyle;rounded=0;orthogonalLoop=1;jettySize=auto;html=1;strokeWidth=3;endArrow=none;startFill=1;startArrow=classic;exitX=0;exitY=0.5;exitDx=0;exitDy=0;" parent="1" source="u_ieO7Wg_MX47zzqjNyd-63" edge="1">
          <mxGeometry relative="1" as="geometry">
            <mxPoint x="69" y="-20.090000000000032" as="targetPoint" />
            <mxPoint x="158.99" y="-30.590000000000032" as="sourcePoint" />
            <Array as="points">
              <mxPoint x="69" y="-20.090000000000032" />
            </Array>
          </mxGeometry>
        </mxCell>
        <mxCell id="u_ieO7Wg_MX47zzqjNyd-65" value="&lt;b&gt;vqy&lt;/b&gt;" style="edgeLabel;html=1;align=center;verticalAlign=middle;resizable=0;points=[];" parent="u_ieO7Wg_MX47zzqjNyd-64" vertex="1" connectable="0">
          <mxGeometry x="0.6145" y="-1" relative="1" as="geometry">
            <mxPoint x="-9" y="1" as="offset" />
          </mxGeometry>
        </mxCell>
        <mxCell id="u_ieO7Wg_MX47zzqjNyd-81" style="edgeStyle=orthogonalEdgeStyle;rounded=0;orthogonalLoop=1;jettySize=auto;html=1;exitX=1;exitY=0.25;exitDx=0;exitDy=0;strokeWidth=3;entryX=0.25;entryY=1;entryDx=0;entryDy=0;" parent="1" source="u_ieO7Wg_MX47zzqjNyd-71" target="u_ieO7Wg_MX47zzqjNyd-113" edge="1">
          <mxGeometry relative="1" as="geometry">
            <mxPoint x="452.15999999999985" y="-315.59000000000003" as="targetPoint" />
            <Array as="points">
              <mxPoint x="385" y="-358" />
              <mxPoint x="385" y="-272" />
              <mxPoint x="396" y="-272" />
            </Array>
          </mxGeometry>
        </mxCell>
        <mxCell id="u_ieO7Wg_MX47zzqjNyd-82" value="&lt;b&gt;RDA&lt;/b&gt;" style="edgeLabel;html=1;align=center;verticalAlign=middle;resizable=0;points=[];" parent="u_ieO7Wg_MX47zzqjNyd-81" vertex="1" connectable="0">
          <mxGeometry x="-0.3262" y="1" relative="1" as="geometry">
            <mxPoint x="-43" y="-31" as="offset" />
          </mxGeometry>
        </mxCell>
        <mxCell id="u_ieO7Wg_MX47zzqjNyd-202" value="&lt;b&gt;RPSM&lt;/b&gt;" style="edgeLabel;html=1;align=center;verticalAlign=middle;resizable=0;points=[];" parent="u_ieO7Wg_MX47zzqjNyd-81" vertex="1" connectable="0">
          <mxGeometry x="0.5551" relative="1" as="geometry">
            <mxPoint as="offset" />
          </mxGeometry>
        </mxCell>
        <mxCell id="u_ieO7Wg_MX47zzqjNyd-83" style="edgeStyle=orthogonalEdgeStyle;rounded=0;orthogonalLoop=1;jettySize=auto;html=1;exitX=0;exitY=0.25;exitDx=0;exitDy=0;strokeWidth=3;endArrow=none;startFill=1;startArrow=classic;fillColor=#e1d5e7;strokeColor=#9673a6;entryX=1;entryY=0.5;entryDx=0;entryDy=0;" parent="1" source="u_ieO7Wg_MX47zzqjNyd-71" target="u_ieO7Wg_MX47zzqjNyd-63" edge="1">
          <mxGeometry relative="1" as="geometry">
            <mxPoint x="215" y="-181.08999999999997" as="targetPoint" />
            <Array as="points">
              <mxPoint x="215" y="-358" />
              <mxPoint x="215" y="-20" />
            </Array>
          </mxGeometry>
        </mxCell>
        <mxCell id="fypPTlqZ2A_tWLVhOAhW-31" value="&lt;b&gt;AA&lt;/b&gt;" style="edgeLabel;html=1;align=center;verticalAlign=middle;resizable=0;points=[];" parent="u_ieO7Wg_MX47zzqjNyd-83" vertex="1" connectable="0">
          <mxGeometry x="-0.9045" relative="1" as="geometry">
            <mxPoint x="32" as="offset" />
          </mxGeometry>
        </mxCell>
        <mxCell id="u_ieO7Wg_MX47zzqjNyd-108" style="edgeStyle=orthogonalEdgeStyle;rounded=0;orthogonalLoop=1;jettySize=auto;html=1;exitX=0.25;exitY=0;exitDx=0;exitDy=0;strokeWidth=3;endArrow=none;startFill=1;startArrow=classic;fillColor=#f8cecc;strokeColor=#b85450;" parent="1" edge="1">
          <mxGeometry relative="1" as="geometry">
            <mxPoint x="598" y="-267" as="targetPoint" />
            <mxPoint x="597" y="-226" as="sourcePoint" />
          </mxGeometry>
        </mxCell>
        <mxCell id="u_ieO7Wg_MX47zzqjNyd-109" value="&lt;b&gt;CLK&lt;/b&gt;" style="edgeLabel;html=1;align=center;verticalAlign=middle;resizable=0;points=[];" parent="u_ieO7Wg_MX47zzqjNyd-108" vertex="1" connectable="0">
          <mxGeometry x="0.4145" y="1" relative="1" as="geometry">
            <mxPoint x="1" y="13" as="offset" />
          </mxGeometry>
        </mxCell>
        <mxCell id="u_ieO7Wg_MX47zzqjNyd-110" style="edgeStyle=orthogonalEdgeStyle;rounded=0;orthogonalLoop=1;jettySize=auto;html=1;exitX=0.75;exitY=0;exitDx=0;exitDy=0;strokeWidth=3;endArrow=none;startFill=1;startArrow=classic;" parent="1" edge="1">
          <mxGeometry relative="1" as="geometry">
            <mxPoint x="644.6566666666668" y="-269.59" as="targetPoint" />
            <mxPoint x="644" y="-221.08999999999997" as="sourcePoint" />
          </mxGeometry>
        </mxCell>
        <mxCell id="u_ieO7Wg_MX47zzqjNyd-111" value="&lt;b&gt;WE2&lt;/b&gt;" style="edgeLabel;html=1;align=center;verticalAlign=middle;resizable=0;points=[];" parent="u_ieO7Wg_MX47zzqjNyd-110" vertex="1" connectable="0">
          <mxGeometry x="0.2616" y="1" relative="1" as="geometry">
            <mxPoint y="40" as="offset" />
          </mxGeometry>
        </mxCell>
        <mxCell id="u_ieO7Wg_MX47zzqjNyd-119" value="&lt;b&gt;1&lt;/b&gt;" style="edgeLabel;html=1;align=center;verticalAlign=middle;resizable=0;points=[];" parent="u_ieO7Wg_MX47zzqjNyd-110" vertex="1" connectable="0">
          <mxGeometry x="0.3226" y="2" relative="1" as="geometry">
            <mxPoint x="1" y="-15" as="offset" />
          </mxGeometry>
        </mxCell>
        <mxCell id="fypPTlqZ2A_tWLVhOAhW-36" style="edgeStyle=orthogonalEdgeStyle;rounded=0;orthogonalLoop=1;jettySize=auto;html=1;exitX=0.5;exitY=0;exitDx=0;exitDy=0;entryX=0.5;entryY=0;entryDx=0;entryDy=0;strokeWidth=3;" parent="1" source="u_ieO7Wg_MX47zzqjNyd-113" target="fypPTlqZ2A_tWLVhOAhW-7" edge="1">
          <mxGeometry relative="1" as="geometry">
            <Array as="points">
              <mxPoint x="515" y="-248" />
              <mxPoint x="515" y="-283" />
              <mxPoint x="846" y="-283" />
            </Array>
          </mxGeometry>
        </mxCell>
        <mxCell id="fypPTlqZ2A_tWLVhOAhW-37" value="&lt;b&gt;DPSM_Next&lt;/b&gt;" style="edgeLabel;html=1;align=center;verticalAlign=middle;resizable=0;points=[];" parent="fypPTlqZ2A_tWLVhOAhW-36" vertex="1" connectable="0">
          <mxGeometry x="0.4953" y="-2" relative="1" as="geometry">
            <mxPoint y="-3" as="offset" />
          </mxGeometry>
        </mxCell>
        <mxCell id="fypPTlqZ2A_tWLVhOAhW-61" style="edgeStyle=orthogonalEdgeStyle;rounded=0;orthogonalLoop=1;jettySize=auto;html=1;exitX=0.5;exitY=0;exitDx=0;exitDy=0;entryX=0;entryY=0.5;entryDx=0;entryDy=0;strokeWidth=3;" parent="1" source="u_ieO7Wg_MX47zzqjNyd-113" target="fypPTlqZ2A_tWLVhOAhW-40" edge="1">
          <mxGeometry relative="1" as="geometry">
            <Array as="points">
              <mxPoint x="514" y="-248" />
              <mxPoint x="514" y="-406" />
            </Array>
          </mxGeometry>
        </mxCell>
        <mxCell id="fypPTlqZ2A_tWLVhOAhW-62" value="&lt;b&gt;DPSM_Next&lt;/b&gt;" style="edgeLabel;html=1;align=center;verticalAlign=middle;resizable=0;points=[];" parent="fypPTlqZ2A_tWLVhOAhW-61" vertex="1" connectable="0">
          <mxGeometry x="0.5915" y="-1" relative="1" as="geometry">
            <mxPoint as="offset" />
          </mxGeometry>
        </mxCell>
        <mxCell id="u_ieO7Wg_MX47zzqjNyd-113" value="&lt;b&gt;SUB&lt;/b&gt;" style="shape=trapezoid;perimeter=trapezoidPerimeter;whiteSpace=wrap;html=1;fixedSize=1;rotation=90;strokeWidth=2;fillColor=#f5f5f5;fontColor=#333333;strokeColor=#000000;sketch=1;curveFitting=1;jiggle=2;" parent="1" vertex="1">
          <mxGeometry x="414.99" y="-268" width="95" height="40.5" as="geometry" />
        </mxCell>
        <mxCell id="u_ieO7Wg_MX47zzqjNyd-115" style="edgeStyle=orthogonalEdgeStyle;rounded=0;orthogonalLoop=1;jettySize=auto;html=1;exitX=0;exitY=0.25;exitDx=0;exitDy=0;entryX=0;entryY=0.5;entryDx=0;entryDy=0;strokeWidth=3;fillColor=#e1d5e7;strokeColor=#9673a6;" parent="1" source="u_ieO7Wg_MX47zzqjNyd-38" target="u_ieO7Wg_MX47zzqjNyd-105" edge="1">
          <mxGeometry relative="1" as="geometry">
            <Array as="points">
              <mxPoint x="215" y="-60" />
              <mxPoint x="215" y="-171" />
              <mxPoint x="541" y="-171" />
              <mxPoint x="541" y="-141" />
            </Array>
          </mxGeometry>
        </mxCell>
        <mxCell id="u_ieO7Wg_MX47zzqjNyd-116" value="&lt;b&gt;A2&lt;/b&gt;" style="edgeLabel;html=1;align=center;verticalAlign=middle;resizable=0;points=[];" parent="u_ieO7Wg_MX47zzqjNyd-115" vertex="1" connectable="0">
          <mxGeometry x="0.9138" y="-1" relative="1" as="geometry">
            <mxPoint x="39" y="-1" as="offset" />
          </mxGeometry>
        </mxCell>
        <mxCell id="u_ieO7Wg_MX47zzqjNyd-114" style="edgeStyle=orthogonalEdgeStyle;rounded=0;orthogonalLoop=1;jettySize=auto;html=1;exitX=0.5;exitY=0;exitDx=0;exitDy=0;entryX=0;entryY=0.75;entryDx=0;entryDy=0;strokeWidth=3;" parent="1" source="u_ieO7Wg_MX47zzqjNyd-113" target="u_ieO7Wg_MX47zzqjNyd-105" edge="1">
          <mxGeometry relative="1" as="geometry">
            <Array as="points">
              <mxPoint x="515" y="-248" />
              <mxPoint x="515" y="-100" />
            </Array>
          </mxGeometry>
        </mxCell>
        <mxCell id="u_ieO7Wg_MX47zzqjNyd-117" value="&lt;b&gt;WD2&lt;/b&gt;" style="edgeLabel;html=1;align=center;verticalAlign=middle;resizable=0;points=[];" parent="u_ieO7Wg_MX47zzqjNyd-114" vertex="1" connectable="0">
          <mxGeometry x="0.7522" relative="1" as="geometry">
            <mxPoint x="49" as="offset" />
          </mxGeometry>
        </mxCell>
        <mxCell id="u_ieO7Wg_MX47zzqjNyd-204" value="&lt;b&gt;DPSM_Next&lt;/b&gt;" style="edgeLabel;html=1;align=center;verticalAlign=middle;resizable=0;points=[];rotation=90;" parent="u_ieO7Wg_MX47zzqjNyd-114" vertex="1" connectable="0">
          <mxGeometry x="-0.7806" relative="1" as="geometry">
            <mxPoint x="6" y="37" as="offset" />
          </mxGeometry>
        </mxCell>
        <mxCell id="u_ieO7Wg_MX47zzqjNyd-118" style="edgeStyle=orthogonalEdgeStyle;rounded=0;orthogonalLoop=1;jettySize=auto;html=1;exitX=0.5;exitY=0;exitDx=0;exitDy=0;entryX=0.75;entryY=1;entryDx=0;entryDy=0;strokeWidth=3;" parent="1" source="u_ieO7Wg_MX47zzqjNyd-56" target="u_ieO7Wg_MX47zzqjNyd-113" edge="1">
          <mxGeometry relative="1" as="geometry">
            <Array as="points">
              <mxPoint x="503" y="5" />
              <mxPoint x="503" y="-118" />
              <mxPoint x="355" y="-118" />
              <mxPoint x="355" y="-224" />
            </Array>
          </mxGeometry>
        </mxCell>
        <mxCell id="u_ieO7Wg_MX47zzqjNyd-203" value="&lt;b&gt;EPSM_Next&lt;/b&gt;" style="edgeLabel;html=1;align=center;verticalAlign=middle;resizable=0;points=[];" parent="u_ieO7Wg_MX47zzqjNyd-118" vertex="1" connectable="0">
          <mxGeometry x="0.8268" relative="1" as="geometry">
            <mxPoint x="-8" as="offset" />
          </mxGeometry>
        </mxCell>
        <mxCell id="fypPTlqZ2A_tWLVhOAhW-6" value="&lt;b&gt;EPSM_Next&lt;/b&gt;" style="edgeLabel;html=1;align=center;verticalAlign=middle;resizable=0;points=[];rotation=90;" parent="u_ieO7Wg_MX47zzqjNyd-118" vertex="1" connectable="0">
          <mxGeometry x="-0.7802" y="-3" relative="1" as="geometry">
            <mxPoint x="-2" y="-16" as="offset" />
          </mxGeometry>
        </mxCell>
        <mxCell id="u_ieO7Wg_MX47zzqjNyd-54" style="edgeStyle=orthogonalEdgeStyle;rounded=0;orthogonalLoop=1;jettySize=auto;html=1;exitX=0.5;exitY=0;exitDx=0;exitDy=0;entryX=0;entryY=0.75;entryDx=0;entryDy=0;strokeWidth=3;" parent="1" source="u_ieO7Wg_MX47zzqjNyd-56" target="u_ieO7Wg_MX47zzqjNyd-38" edge="1">
          <mxGeometry relative="1" as="geometry">
            <Array as="points">
              <mxPoint x="503" y="5" />
              <mxPoint x="503" y="113" />
              <mxPoint x="177" y="113" />
              <mxPoint x="177" y="20" />
            </Array>
          </mxGeometry>
        </mxCell>
        <mxCell id="u_ieO7Wg_MX47zzqjNyd-55" value="&lt;b&gt;WD2&lt;/b&gt;" style="edgeLabel;html=1;align=center;verticalAlign=middle;resizable=0;points=[];" parent="u_ieO7Wg_MX47zzqjNyd-54" vertex="1" connectable="0">
          <mxGeometry x="0.8841" relative="1" as="geometry">
            <mxPoint x="54" as="offset" />
          </mxGeometry>
        </mxCell>
        <mxCell id="fypPTlqZ2A_tWLVhOAhW-4" value="&lt;b&gt;EPSM_Next&lt;/b&gt;" style="edgeLabel;html=1;align=center;verticalAlign=middle;resizable=0;points=[];" parent="u_ieO7Wg_MX47zzqjNyd-54" vertex="1" connectable="0">
          <mxGeometry x="0.8356" relative="1" as="geometry">
            <mxPoint x="-4" as="offset" />
          </mxGeometry>
        </mxCell>
        <mxCell id="u_ieO7Wg_MX47zzqjNyd-198" value="" style="endArrow=none;html=1;rounded=0;" parent="1" edge="1">
          <mxGeometry width="50" height="50" relative="1" as="geometry">
            <mxPoint x="33" y="142" as="sourcePoint" />
            <mxPoint x="35" y="-778" as="targetPoint" />
          </mxGeometry>
        </mxCell>
        <mxCell id="u_ieO7Wg_MX47zzqjNyd-199" value="" style="endArrow=none;html=1;rounded=0;" parent="1" edge="1">
          <mxGeometry width="50" height="50" relative="1" as="geometry">
            <mxPoint x="1635" y="147" as="sourcePoint" />
            <mxPoint x="1635" y="-778" as="targetPoint" />
          </mxGeometry>
        </mxCell>
        <mxCell id="u_ieO7Wg_MX47zzqjNyd-200" value="" style="endArrow=none;html=1;rounded=0;" parent="1" edge="1">
          <mxGeometry width="50" height="50" relative="1" as="geometry">
            <mxPoint x="1636" y="-777" as="sourcePoint" />
            <mxPoint x="35" y="-777" as="targetPoint" />
          </mxGeometry>
        </mxCell>
        <mxCell id="u_ieO7Wg_MX47zzqjNyd-201" value="" style="endArrow=none;html=1;rounded=0;" parent="1" edge="1">
          <mxGeometry width="50" height="50" relative="1" as="geometry">
            <mxPoint x="1636" y="146" as="sourcePoint" />
            <mxPoint x="33" y="142" as="targetPoint" />
          </mxGeometry>
        </mxCell>
        <mxCell id="PpxZ1DYI65sbC_VKlgME-23" style="edgeStyle=orthogonalEdgeStyle;rounded=0;orthogonalLoop=1;jettySize=auto;html=1;exitX=0;exitY=0.5;exitDx=0;exitDy=0;entryX=0.25;entryY=1;entryDx=0;entryDy=0;strokeWidth=3;" parent="1" source="fypPTlqZ2A_tWLVhOAhW-52" target="u_ieO7Wg_MX47zzqjNyd-71" edge="1">
          <mxGeometry relative="1" as="geometry">
            <Array as="points">
              <mxPoint x="235" y="-680" />
              <mxPoint x="235" y="-199" />
              <mxPoint x="293" y="-199" />
            </Array>
            <mxPoint x="571" y="-346" as="sourcePoint" />
          </mxGeometry>
        </mxCell>
        <mxCell id="fypPTlqZ2A_tWLVhOAhW-57" value="&lt;b&gt;save_rpsm&lt;/b&gt;" style="edgeLabel;html=1;align=center;verticalAlign=middle;resizable=0;points=[];" parent="PpxZ1DYI65sbC_VKlgME-23" vertex="1" connectable="0">
          <mxGeometry x="-0.568" y="2" relative="1" as="geometry">
            <mxPoint x="103" y="-3" as="offset" />
          </mxGeometry>
        </mxCell>
        <mxCell id="nvB2LYtNl4qE-trOrM68-1" value="&lt;b&gt;shiftA&lt;/b&gt;" style="edgeLabel;html=1;align=center;verticalAlign=middle;resizable=0;points=[];" parent="PpxZ1DYI65sbC_VKlgME-23" vertex="1" connectable="0">
          <mxGeometry x="0.9624" relative="1" as="geometry">
            <mxPoint y="-35" as="offset" />
          </mxGeometry>
        </mxCell>
        <mxCell id="PpxZ1DYI65sbC_VKlgME-28" value="" style="ellipse;whiteSpace=wrap;html=1;aspect=fixed;fillColor=#f8cecc;strokeColor=#b85450;" parent="1" vertex="1">
          <mxGeometry x="595" y="-226" width="4" height="4" as="geometry" />
        </mxCell>
        <mxCell id="PpxZ1DYI65sbC_VKlgME-29" value="" style="endArrow=none;html=1;rounded=0;exitX=0.139;exitY=0.009;exitDx=0;exitDy=0;exitPerimeter=0;entryX=0.233;entryY=0.063;entryDx=0;entryDy=0;entryPerimeter=0;strokeWidth=2;" parent="1" source="u_ieO7Wg_MX47zzqjNyd-105" target="u_ieO7Wg_MX47zzqjNyd-105" edge="1">
          <mxGeometry width="50" height="50" relative="1" as="geometry">
            <mxPoint x="591" y="-169" as="sourcePoint" />
            <mxPoint x="641" y="-219" as="targetPoint" />
          </mxGeometry>
        </mxCell>
        <mxCell id="PpxZ1DYI65sbC_VKlgME-30" value="" style="endArrow=none;html=1;rounded=0;exitX=0.332;exitY=0.017;exitDx=0;exitDy=0;exitPerimeter=0;strokeWidth=2;" parent="1" source="u_ieO7Wg_MX47zzqjNyd-105" edge="1">
          <mxGeometry width="50" height="50" relative="1" as="geometry">
            <mxPoint x="589" y="-219" as="sourcePoint" />
            <mxPoint x="596" y="-211" as="targetPoint" />
          </mxGeometry>
        </mxCell>
        <mxCell id="PpxZ1DYI65sbC_VKlgME-31" value="" style="endArrow=none;html=1;rounded=0;exitX=0.139;exitY=0.009;exitDx=0;exitDy=0;exitPerimeter=0;entryX=0.233;entryY=0.063;entryDx=0;entryDy=0;entryPerimeter=0;strokeWidth=2;" parent="1" edge="1">
          <mxGeometry width="50" height="50" relative="1" as="geometry">
            <mxPoint x="283.5" y="-102" as="sourcePoint" />
            <mxPoint x="291.5" y="-93" as="targetPoint" />
          </mxGeometry>
        </mxCell>
        <mxCell id="PpxZ1DYI65sbC_VKlgME-32" value="" style="endArrow=none;html=1;rounded=0;exitX=0.332;exitY=0.017;exitDx=0;exitDy=0;exitPerimeter=0;strokeWidth=2;" parent="1" edge="1">
          <mxGeometry width="50" height="50" relative="1" as="geometry">
            <mxPoint x="300.5" y="-100" as="sourcePoint" />
            <mxPoint x="291.5" y="-93" as="targetPoint" />
          </mxGeometry>
        </mxCell>
        <mxCell id="fypPTlqZ2A_tWLVhOAhW-10" value="" style="edgeStyle=orthogonalEdgeStyle;rounded=0;orthogonalLoop=1;jettySize=auto;html=1;strokeWidth=3;strokeColor=#00FF00;" parent="1" source="fypPTlqZ2A_tWLVhOAhW-7" target="fypPTlqZ2A_tWLVhOAhW-9" edge="1">
          <mxGeometry relative="1" as="geometry" />
        </mxCell>
        <mxCell id="fypPTlqZ2A_tWLVhOAhW-11" value="&lt;b&gt;YES&lt;/b&gt;" style="edgeLabel;html=1;align=center;verticalAlign=middle;resizable=0;points=[];" parent="fypPTlqZ2A_tWLVhOAhW-10" vertex="1" connectable="0">
          <mxGeometry x="-0.2518" relative="1" as="geometry">
            <mxPoint as="offset" />
          </mxGeometry>
        </mxCell>
        <mxCell id="fypPTlqZ2A_tWLVhOAhW-13" value="" style="edgeStyle=orthogonalEdgeStyle;rounded=0;orthogonalLoop=1;jettySize=auto;html=1;strokeWidth=3;strokeColor=#FF0000;" parent="1" source="fypPTlqZ2A_tWLVhOAhW-7" target="fypPTlqZ2A_tWLVhOAhW-12" edge="1">
          <mxGeometry relative="1" as="geometry" />
        </mxCell>
        <mxCell id="fypPTlqZ2A_tWLVhOAhW-14" value="&lt;b&gt;NO&lt;/b&gt;" style="edgeLabel;html=1;align=center;verticalAlign=middle;resizable=0;points=[];" parent="fypPTlqZ2A_tWLVhOAhW-13" vertex="1" connectable="0">
          <mxGeometry x="-0.3946" y="-1" relative="1" as="geometry">
            <mxPoint x="1" y="3" as="offset" />
          </mxGeometry>
        </mxCell>
        <mxCell id="fypPTlqZ2A_tWLVhOAhW-7" value="&lt;b&gt;DPSM == 0 &amp;amp;&amp;amp; DPSM_Next != 0&lt;/b&gt;" style="rhombus;whiteSpace=wrap;html=1;strokeWidth=3;fillColor=#fff2cc;strokeColor=#d6b656;sketch=1;curveFitting=1;jiggle=2;" parent="1" vertex="1">
          <mxGeometry x="774" y="-248" width="143" height="133" as="geometry" />
        </mxCell>
        <mxCell id="fypPTlqZ2A_tWLVhOAhW-19" value="" style="edgeStyle=orthogonalEdgeStyle;rounded=0;orthogonalLoop=1;jettySize=auto;html=1;strokeWidth=3;" parent="1" source="fypPTlqZ2A_tWLVhOAhW-9" target="fypPTlqZ2A_tWLVhOAhW-18" edge="1">
          <mxGeometry relative="1" as="geometry" />
        </mxCell>
        <mxCell id="fypPTlqZ2A_tWLVhOAhW-9" value="&lt;b&gt;non_zero_counter++&lt;/b&gt;" style="whiteSpace=wrap;html=1;fillColor=#f5f5f5;strokeColor=#000000;strokeWidth=3;sketch=1;curveFitting=1;jiggle=2;fontColor=#333333;" parent="1" vertex="1">
          <mxGeometry x="972" y="-211.5" width="143" height="60" as="geometry" />
        </mxCell>
        <mxCell id="fypPTlqZ2A_tWLVhOAhW-16" value="" style="edgeStyle=orthogonalEdgeStyle;rounded=0;orthogonalLoop=1;jettySize=auto;html=1;strokeWidth=3;strokeColor=#00FF00;" parent="1" source="fypPTlqZ2A_tWLVhOAhW-12" target="fypPTlqZ2A_tWLVhOAhW-15" edge="1">
          <mxGeometry relative="1" as="geometry" />
        </mxCell>
        <mxCell id="fypPTlqZ2A_tWLVhOAhW-17" value="&lt;b&gt;YES&lt;/b&gt;" style="edgeLabel;html=1;align=center;verticalAlign=middle;resizable=0;points=[];" parent="fypPTlqZ2A_tWLVhOAhW-16" vertex="1" connectable="0">
          <mxGeometry x="-0.2199" relative="1" as="geometry">
            <mxPoint as="offset" />
          </mxGeometry>
        </mxCell>
        <mxCell id="fypPTlqZ2A_tWLVhOAhW-21" style="edgeStyle=orthogonalEdgeStyle;rounded=0;orthogonalLoop=1;jettySize=auto;html=1;exitX=0.5;exitY=1;exitDx=0;exitDy=0;entryX=0;entryY=0.5;entryDx=0;entryDy=0;strokeWidth=3;strokeColor=#FF0000;" parent="1" source="fypPTlqZ2A_tWLVhOAhW-12" target="fypPTlqZ2A_tWLVhOAhW-18" edge="1">
          <mxGeometry relative="1" as="geometry">
            <Array as="points">
              <mxPoint x="845" y="79" />
              <mxPoint x="1142" y="79" />
              <mxPoint x="1142" y="-88" />
            </Array>
          </mxGeometry>
        </mxCell>
        <mxCell id="fypPTlqZ2A_tWLVhOAhW-22" value="&lt;b&gt;NO&lt;/b&gt;" style="edgeLabel;html=1;align=center;verticalAlign=middle;resizable=0;points=[];" parent="fypPTlqZ2A_tWLVhOAhW-21" vertex="1" connectable="0">
          <mxGeometry x="-0.8" y="-3" relative="1" as="geometry">
            <mxPoint x="-6" y="-3" as="offset" />
          </mxGeometry>
        </mxCell>
        <mxCell id="fypPTlqZ2A_tWLVhOAhW-12" value="&lt;b&gt;DPSM != 0 &amp;amp;&amp;amp; DPSM_Next == 0&lt;/b&gt;" style="rhombus;whiteSpace=wrap;html=1;fillColor=#fff2cc;strokeColor=#d6b656;strokeWidth=3;sketch=1;curveFitting=1;jiggle=2;" parent="1" vertex="1">
          <mxGeometry x="776" y="-66" width="138" height="125" as="geometry" />
        </mxCell>
        <mxCell id="fypPTlqZ2A_tWLVhOAhW-20" style="edgeStyle=orthogonalEdgeStyle;rounded=0;orthogonalLoop=1;jettySize=auto;html=1;exitX=1;exitY=0.5;exitDx=0;exitDy=0;entryX=0;entryY=0.5;entryDx=0;entryDy=0;strokeWidth=3;" parent="1" source="fypPTlqZ2A_tWLVhOAhW-15" target="fypPTlqZ2A_tWLVhOAhW-18" edge="1">
          <mxGeometry relative="1" as="geometry">
            <Array as="points">
              <mxPoint x="1142" y="-4" />
              <mxPoint x="1142" y="-88" />
            </Array>
          </mxGeometry>
        </mxCell>
        <mxCell id="fypPTlqZ2A_tWLVhOAhW-15" value="&lt;b&gt;non_zero_counter--&lt;/b&gt;" style="whiteSpace=wrap;html=1;fillColor=#f5f5f5;strokeColor=#000000;strokeWidth=3;sketch=1;curveFitting=1;jiggle=2;fontColor=#333333;" parent="1" vertex="1">
          <mxGeometry x="976" y="-33.5" width="147" height="60" as="geometry" />
        </mxCell>
        <mxCell id="fypPTlqZ2A_tWLVhOAhW-24" value="" style="edgeStyle=orthogonalEdgeStyle;rounded=0;orthogonalLoop=1;jettySize=auto;html=1;strokeWidth=3;strokeColor=#00FF00;" parent="1" source="fypPTlqZ2A_tWLVhOAhW-18" target="fypPTlqZ2A_tWLVhOAhW-23" edge="1">
          <mxGeometry relative="1" as="geometry" />
        </mxCell>
        <mxCell id="fypPTlqZ2A_tWLVhOAhW-25" value="&lt;b&gt;YES&lt;/b&gt;" style="edgeLabel;html=1;align=center;verticalAlign=middle;resizable=0;points=[];" parent="fypPTlqZ2A_tWLVhOAhW-24" vertex="1" connectable="0">
          <mxGeometry x="-0.3576" y="-2" relative="1" as="geometry">
            <mxPoint x="5" y="-2" as="offset" />
          </mxGeometry>
        </mxCell>
        <mxCell id="fypPTlqZ2A_tWLVhOAhW-27" value="" style="edgeStyle=orthogonalEdgeStyle;rounded=0;orthogonalLoop=1;jettySize=auto;html=1;strokeWidth=3;strokeColor=#FF0000;" parent="1" source="fypPTlqZ2A_tWLVhOAhW-18" target="fypPTlqZ2A_tWLVhOAhW-26" edge="1">
          <mxGeometry relative="1" as="geometry">
            <Array as="points">
              <mxPoint x="1283" y="2" />
            </Array>
          </mxGeometry>
        </mxCell>
        <mxCell id="fypPTlqZ2A_tWLVhOAhW-28" value="&lt;b&gt;NO&lt;/b&gt;" style="edgeLabel;html=1;align=center;verticalAlign=middle;resizable=0;points=[];" parent="fypPTlqZ2A_tWLVhOAhW-27" vertex="1" connectable="0">
          <mxGeometry x="-0.1663" y="-2" relative="1" as="geometry">
            <mxPoint x="-10" y="-2" as="offset" />
          </mxGeometry>
        </mxCell>
        <mxCell id="fypPTlqZ2A_tWLVhOAhW-18" value="&lt;div&gt;&lt;b&gt;qrs == 1&amp;nbsp;&lt;/b&gt;&lt;/div&gt;&lt;div&gt;&lt;b&gt;&amp;amp;&amp;amp;&lt;/b&gt;&lt;/div&gt;&lt;b&gt;CV1_flag == 0&lt;/b&gt;" style="rhombus;whiteSpace=wrap;html=1;fillColor=#fff2cc;strokeColor=#d6b656;strokeWidth=3;sketch=1;curveFitting=1;jiggle=2;" parent="1" vertex="1">
          <mxGeometry x="1222" y="-142" width="121" height="108" as="geometry" />
        </mxCell>
        <mxCell id="fypPTlqZ2A_tWLVhOAhW-23" value="&lt;div&gt;&lt;b&gt;CVn = non_zero_counter&lt;/b&gt;&lt;/div&gt;&lt;b&gt;CPSD = CVn / CV1&lt;/b&gt;" style="whiteSpace=wrap;html=1;fillColor=#f5f5f5;strokeColor=#000000;strokeWidth=3;sketch=1;curveFitting=1;jiggle=2;fontColor=#333333;" parent="1" vertex="1">
          <mxGeometry x="1423.5" y="-118" width="154.5" height="60" as="geometry" />
        </mxCell>
        <mxCell id="fypPTlqZ2A_tWLVhOAhW-26" value="&lt;b&gt;CV1 = non_zero_counter&lt;/b&gt;" style="whiteSpace=wrap;html=1;fillColor=#f5f5f5;strokeColor=#000000;strokeWidth=3;sketch=1;curveFitting=1;jiggle=2;fontColor=#333333;" parent="1" vertex="1">
          <mxGeometry x="1423.5" y="-28" width="157.5" height="60" as="geometry" />
        </mxCell>
        <mxCell id="fypPTlqZ2A_tWLVhOAhW-32" style="edgeStyle=orthogonalEdgeStyle;rounded=0;orthogonalLoop=1;jettySize=auto;html=1;exitX=0.25;exitY=0;exitDx=0;exitDy=0;strokeWidth=3;endArrow=none;startFill=1;startArrow=classic;fillColor=#f8cecc;strokeColor=#b85450;" parent="1" edge="1">
          <mxGeometry relative="1" as="geometry">
            <mxPoint x="289.8899999999999" y="-452" as="targetPoint" />
            <mxPoint x="289.5" y="-397.40999999999997" as="sourcePoint" />
          </mxGeometry>
        </mxCell>
        <mxCell id="fypPTlqZ2A_tWLVhOAhW-33" value="&lt;b&gt;CLK&lt;/b&gt;" style="edgeLabel;html=1;align=center;verticalAlign=middle;resizable=0;points=[];" parent="fypPTlqZ2A_tWLVhOAhW-32" vertex="1" connectable="0">
          <mxGeometry x="0.4145" y="1" relative="1" as="geometry">
            <mxPoint y="6" as="offset" />
          </mxGeometry>
        </mxCell>
        <mxCell id="fypPTlqZ2A_tWLVhOAhW-34" value="" style="endArrow=none;html=1;rounded=0;exitX=0.139;exitY=0.009;exitDx=0;exitDy=0;exitPerimeter=0;entryX=0.233;entryY=0.063;entryDx=0;entryDy=0;entryPerimeter=0;strokeWidth=2;" parent="1" edge="1">
          <mxGeometry width="50" height="50" relative="1" as="geometry">
            <mxPoint x="282" y="-398.40999999999997" as="sourcePoint" />
            <mxPoint x="290" y="-389.40999999999997" as="targetPoint" />
          </mxGeometry>
        </mxCell>
        <mxCell id="fypPTlqZ2A_tWLVhOAhW-35" value="" style="endArrow=none;html=1;rounded=0;exitX=0.332;exitY=0.017;exitDx=0;exitDy=0;exitPerimeter=0;strokeWidth=2;" parent="1" edge="1">
          <mxGeometry width="50" height="50" relative="1" as="geometry">
            <mxPoint x="299" y="-396.40999999999997" as="sourcePoint" />
            <mxPoint x="290" y="-389.40999999999997" as="targetPoint" />
          </mxGeometry>
        </mxCell>
        <mxCell id="fypPTlqZ2A_tWLVhOAhW-42" style="edgeStyle=orthogonalEdgeStyle;rounded=0;orthogonalLoop=1;jettySize=auto;html=1;exitX=1;exitY=0.5;exitDx=0;exitDy=0;entryX=0;entryY=0.5;entryDx=0;entryDy=0;strokeWidth=3;strokeColor=#FF0000;" parent="1" source="fypPTlqZ2A_tWLVhOAhW-40" target="fypPTlqZ2A_tWLVhOAhW-41" edge="1">
          <mxGeometry relative="1" as="geometry" />
        </mxCell>
        <mxCell id="fypPTlqZ2A_tWLVhOAhW-44" value="&lt;b&gt;NO&lt;/b&gt;" style="edgeLabel;html=1;align=center;verticalAlign=middle;resizable=0;points=[];" parent="fypPTlqZ2A_tWLVhOAhW-42" vertex="1" connectable="0">
          <mxGeometry x="-0.3463" y="1" relative="1" as="geometry">
            <mxPoint x="3" as="offset" />
          </mxGeometry>
        </mxCell>
        <mxCell id="fypPTlqZ2A_tWLVhOAhW-46" style="edgeStyle=orthogonalEdgeStyle;rounded=0;orthogonalLoop=1;jettySize=auto;html=1;exitX=0.5;exitY=0;exitDx=0;exitDy=0;entryX=0.5;entryY=1;entryDx=0;entryDy=0;strokeWidth=3;strokeColor=#00FF00;" parent="1" source="fypPTlqZ2A_tWLVhOAhW-40" target="fypPTlqZ2A_tWLVhOAhW-45" edge="1">
          <mxGeometry relative="1" as="geometry" />
        </mxCell>
        <mxCell id="fypPTlqZ2A_tWLVhOAhW-47" value="&lt;b&gt;YES&lt;/b&gt;" style="edgeLabel;html=1;align=center;verticalAlign=middle;resizable=0;points=[];" parent="fypPTlqZ2A_tWLVhOAhW-46" vertex="1" connectable="0">
          <mxGeometry x="-0.2659" y="-1" relative="1" as="geometry">
            <mxPoint as="offset" />
          </mxGeometry>
        </mxCell>
        <mxCell id="fypPTlqZ2A_tWLVhOAhW-40" value="&lt;b&gt;DPSM &amp;gt;= THR&amp;nbsp;&lt;/b&gt;&lt;div&gt;&lt;b&gt;&amp;amp;&amp;amp;&amp;nbsp;&lt;/b&gt;&lt;/div&gt;&lt;div&gt;&lt;b&gt;DPSM_Next &amp;lt; THR&lt;/b&gt;&lt;/div&gt;" style="rhombus;whiteSpace=wrap;html=1;strokeWidth=3;fillColor=#fff2cc;strokeColor=#d6b656;sketch=1;curveFitting=1;jiggle=2;" parent="1" vertex="1">
          <mxGeometry x="769" y="-473" width="143" height="133" as="geometry" />
        </mxCell>
        <mxCell id="fypPTlqZ2A_tWLVhOAhW-49" style="edgeStyle=orthogonalEdgeStyle;rounded=0;orthogonalLoop=1;jettySize=auto;html=1;exitX=0.5;exitY=0;exitDx=0;exitDy=0;entryX=0.5;entryY=1;entryDx=0;entryDy=0;strokeWidth=3;strokeColor=#00FF00;" parent="1" source="fypPTlqZ2A_tWLVhOAhW-41" target="fypPTlqZ2A_tWLVhOAhW-48" edge="1">
          <mxGeometry relative="1" as="geometry" />
        </mxCell>
        <mxCell id="fypPTlqZ2A_tWLVhOAhW-50" value="&lt;b&gt;YES&lt;/b&gt;" style="edgeLabel;html=1;align=center;verticalAlign=middle;resizable=0;points=[];" parent="fypPTlqZ2A_tWLVhOAhW-49" vertex="1" connectable="0">
          <mxGeometry x="-0.3221" y="-1" relative="1" as="geometry">
            <mxPoint as="offset" />
          </mxGeometry>
        </mxCell>
        <mxCell id="fypPTlqZ2A_tWLVhOAhW-41" value="&lt;b&gt;DPSM &amp;lt; THR&amp;nbsp;&lt;/b&gt;&lt;div&gt;&lt;b&gt;&amp;amp;&amp;amp;&amp;nbsp;&lt;/b&gt;&lt;/div&gt;&lt;div&gt;&lt;b&gt;DPSM_Next &amp;gt;= THR&lt;/b&gt;&lt;/div&gt;" style="rhombus;whiteSpace=wrap;html=1;fillColor=#fff2cc;strokeColor=#d6b656;strokeWidth=3;sketch=1;curveFitting=1;jiggle=2;" parent="1" vertex="1">
          <mxGeometry x="966" y="-474.5" width="144" height="136" as="geometry" />
        </mxCell>
        <mxCell id="fypPTlqZ2A_tWLVhOAhW-53" value="" style="edgeStyle=orthogonalEdgeStyle;rounded=0;orthogonalLoop=1;jettySize=auto;html=1;strokeWidth=3;" parent="1" source="fypPTlqZ2A_tWLVhOAhW-45" target="fypPTlqZ2A_tWLVhOAhW-52" edge="1">
          <mxGeometry relative="1" as="geometry" />
        </mxCell>
        <mxCell id="fypPTlqZ2A_tWLVhOAhW-45" value="&lt;b&gt;counter++&lt;/b&gt;" style="whiteSpace=wrap;html=1;fillColor=#f5f5f5;strokeColor=#000000;strokeWidth=3;sketch=1;curveFitting=1;jiggle=2;fontColor=#333333;" parent="1" vertex="1">
          <mxGeometry x="793.5" y="-580" width="94" height="60" as="geometry" />
        </mxCell>
        <mxCell id="fypPTlqZ2A_tWLVhOAhW-48" value="&lt;b&gt;counter--&lt;/b&gt;" style="whiteSpace=wrap;html=1;fillColor=#f5f5f5;strokeColor=#000000;strokeWidth=3;sketch=1;curveFitting=1;jiggle=2;fontColor=#333333;" parent="1" vertex="1">
          <mxGeometry x="992" y="-581" width="94" height="60" as="geometry" />
        </mxCell>
        <mxCell id="fypPTlqZ2A_tWLVhOAhW-52" value="&lt;b&gt;qrs == 1&lt;/b&gt;&lt;div&gt;&lt;b&gt;&amp;amp;&amp;amp;&lt;/b&gt;&lt;/div&gt;&lt;div&gt;&lt;b&gt;counter == 0&lt;/b&gt;&lt;/div&gt;" style="rhombus;whiteSpace=wrap;html=1;fillColor=#fff2cc;strokeColor=#d6b656;strokeWidth=3;sketch=1;curveFitting=1;jiggle=2;" parent="1" vertex="1">
          <mxGeometry x="862" y="-730" width="108" height="101" as="geometry" />
        </mxCell>
        <mxCell id="fypPTlqZ2A_tWLVhOAhW-55" style="edgeStyle=orthogonalEdgeStyle;rounded=0;orthogonalLoop=1;jettySize=auto;html=1;exitX=1;exitY=0.5;exitDx=0;exitDy=0;entryX=1;entryY=0.5;entryDx=0;entryDy=0;strokeWidth=3;strokeColor=#FF0000;" parent="1" source="fypPTlqZ2A_tWLVhOAhW-41" target="fypPTlqZ2A_tWLVhOAhW-52" edge="1">
          <mxGeometry relative="1" as="geometry">
            <Array as="points">
              <mxPoint x="1143" y="-406" />
              <mxPoint x="1143" y="-680" />
              <mxPoint x="970" y="-680" />
            </Array>
          </mxGeometry>
        </mxCell>
        <mxCell id="fypPTlqZ2A_tWLVhOAhW-56" value="&lt;b&gt;NO&lt;/b&gt;" style="edgeLabel;html=1;align=center;verticalAlign=middle;resizable=0;points=[];" parent="fypPTlqZ2A_tWLVhOAhW-55" vertex="1" connectable="0">
          <mxGeometry x="-0.9221" y="-1" relative="1" as="geometry">
            <mxPoint x="-4" y="-1" as="offset" />
          </mxGeometry>
        </mxCell>
        <mxCell id="fypPTlqZ2A_tWLVhOAhW-54" style="edgeStyle=orthogonalEdgeStyle;rounded=0;orthogonalLoop=1;jettySize=auto;html=1;exitX=0.5;exitY=0;exitDx=0;exitDy=0;entryX=1;entryY=0.5;entryDx=0;entryDy=0;strokeWidth=3;" parent="1" source="fypPTlqZ2A_tWLVhOAhW-48" target="fypPTlqZ2A_tWLVhOAhW-52" edge="1">
          <mxGeometry relative="1" as="geometry" />
        </mxCell>
      </root>
    </mxGraphModel>
  </diagram>
</mxfile>
